<svg
	xmlns="http://www.w3.org/2000/svg"
	width="200"
	height="200"
	viewBox="0 0 418.497 418.497"
	xml:space="preserve"
><path
		fill="#4f46e5"
		d="M246.92 187.032c-6.793-.003-12.844-4.331-15.057-10.771a14.997 14.997 0 0 0-14.188-10.128h-.006l-9.392.004a14.998 14.998 0 0 0-14.512 18.768c6.283 24.208 28.137 41.12 53.151 41.127 35.137-.009 63.725-28.604 63.73-63.748-.006-41.243-33.562-74.797-74.807-74.797-48.867.002-88.625 39.761-88.625 88.631.007 58.39 47.517 105.899 105.912 105.905 70.303-.006 127.502-57.207 127.508-127.51 0-41.271-16.072-80.073-45.256-109.256C306.198 16.071 267.399-.001 226.125 0 122.316 0 37.86 84.455 37.86 188.264c0 61.557 23.972 119.429 67.499 162.956 40.768 40.77 94.847 64.655 152.276 67.262a14.994 14.994 0 0 0 11.043-4.139 15.002 15.002 0 0 0 4.637-10.845v-9.013c0-8.005-6.285-14.601-14.281-14.982C156.88 374.608 76.86 290.607 76.86 188.265c0-82.305 66.96-149.264 149.266-149.264 30.854-.001 59.859 12.015 81.678 33.832 21.818 21.818 33.834 50.827 33.834 81.68-.002 48.801-39.707 88.506-88.506 88.512-36.893-.006-66.908-30.021-66.914-66.909 0-27.363 22.263-49.626 49.626-49.628 19.738 0 35.801 16.061 35.805 35.797-.002 13.643-11.1 24.744-24.729 24.747z"
	/></svg>
